<svg xmlns="http://www.w3.org/2000/svg" viewBox="0 0 1044.83 1047.51"><defs><style>.a{fill:#CC1034;}</style></defs><title>Untitled-2</title><path class="a" d="M131.69,703.64C121,648.94,111,597.57,100.16,541.94L49.37,570.71v-65l54.26,32.18c2.71-24.23,3.75-43.75,7.31-62.8,4.57-24.48,9.77-49,17.39-72.69,5-15.46,0-22.36-13.76-21.82-20,.78-39.89,4.64-59.86,6.83-12.47,1.36-25,2.06-37.54,3.06,1.5-11.93,1-24.58,4.92-35.63,7.05-19.73,16-38.92,25.65-57.54,8.26-15.89,17.58-16,27.59-1,6.17,9.24,10.46,19.72,15.83,29.51,10.65,19.43,24.31,35.61,44.28,42.25l90.18-135.62-57.94-15.1L215,169.07l15.17,59.42,128.79-87.94c-5.31-20.29-22.56-33.66-41.89-45.11-10.16-6-21.25-10.59-31-17.22C273.68,69.76,273,59.45,287.53,53c26.33-11.74,53-22.82,80.11-32.67,13.73-5,20.48,3.35,17.84,16.66-2.68,13.47-8,26.4-11.69,39.69-5.58,20-7.5,39.92,2.28,56.43L535,101.36,504.61,51h66l-30.23,50.76L692.9,130.61c12.28-18.87,7.53-41.67,1.06-64.49-3.05-10.73-7.82-21.11-9.61-32-2-12.41,2-22.12,17.45-16.29,26.94,10.18,54.12,20,80.14,32.24,15.39,7.24,14.94,16.2.28,26.08-11.41,7.68-25.22,12.1-35.8,20.64-14.2,11.46-26.33,25.5-39,38.06L846,227.46l15.23-57.21,48.68,46.29L850,232.2,937.2,360.07c20.78-5.58,33.5-23.46,44.53-43.14,6.1-10.88,11.15-22.47,18.26-32.63s17-11.89,22.87,1c12.25,26.79,24.06,53.86,34.42,81.42,5.85,15.57-4.4,20.79-18,18.12-12.82-2.52-25.1-7.7-37.8-11-20.09-5.27-39.94-6-56.74,2.89,10.6,53.36,20.77,104.56,31.79,160.08L1026.46,507v65.4L976,542.67c-9.89,52.24-19,100.38-28.66,151.35,17.36,11.86,38.94,8.28,60.71,2.5,12-3.19,23.89-7.44,36.11-9.42,12.7-2.05,21.88,2.39,16.08,17.57-10,26.31-19.9,52.8-31.9,78.25-7.42,15.74-17.7,15.15-27.56-.19-6.37-9.91-9.75-22-17-31-12.33-15.39-26.66-29.18-40.06-43.55-32.4,48.34-61.81,92.19-93.8,139.91l58.3,15.05L864.5,907.68l-6.66-1.74c-1.32-9-2-18.23-4.16-27-2.27-9.18-6-18-9-26.52L718.19,938.49c6.14,19.47,21.54,33,40.22,43.48,10.89,6.1,22.77,10.61,33.09,17.5,13.91,9.3,13.87,19.18-1.17,26.34-25.43,12.09-51.6,22.84-78.07,32.46-14.94,5.43-22.41-2.17-19-18.3,3.13-14.73,10.14-28.81,12-43.61,2.14-16.93.5-34.33.5-51L540.09,978.17l30.66,49.67H504.8c11.1-18.14,20.62-33.69,30.79-50.29L383.69,949c-10.72,18-7.65,39.66-1.81,61.4,3.07,11.41,7.95,22.45,9.94,34,2.26,13.16-1.54,23.68-18.19,17.33-26.3-10-52.76-19.92-78.1-32.08-16.1-7.73-15.54-17.38-.09-27.29,11-7.09,24.16-11.27,34.29-19.33,14.42-11.48,27-25.33,40.21-38.08l-140-93.45c-4.49,16.44-9.33,34.14-15.77,57.73-16.93-17-30.68-30.71-47.53-47.58L226,846.51l-86.4-126.79c-20,5.71-33.57,22.58-44.61,42.35-6.39,11.45-12,23.48-19.46,34.14-6.79,9.63-16.45,10.1-21.57-1.44-12.51-28.12-24.47-56.55-35.1-85.43C14,696.07,24.78,693,34.72,694.66c12.19,2.07,24,6.44,36,10C92,710.94,113,712.42,131.69,703.64ZM405.31,389.48c-.17-32.14-25.47-58.13-56.93-58.48-32.23-.35-59.54,26.51-59.36,58.4.18,32.27,27.33,59,59.36,58.43S405.47,421.7,405.31,389.48ZM724.24,728.93c-28.19-.44-51.21,21.45-51.35,48.82a50.38,50.38,0,0,0,50,50.51,49,49,0,0,0,49.86-48C773.45,752,752,729.36,724.24,728.93ZM606.54,539.16c-.39-25.26-21.77-46.39-46.94-46.39-25.91,0-47,22.19-46.28,48.72.68,25.3,22.64,46.2,47.63,45.34C586.42,586,606.94,564.5,606.54,539.16Zm-93.35,297.5c.41-25-20.81-46.79-46-47.19s-46.67,20.58-47.13,46c-.45,24.79,21.38,47.25,45.95,47.27C491.53,882.72,512.77,862,513.19,836.66ZM474,206.94a40.28,40.28,0,0,0,39.17,40.95c21.05.44,40.43-18.56,40.7-39.9a39.91,39.91,0,0,0-39.61-40.46C491.76,167.15,474.33,184.21,474,206.94ZM857.16,410.7c19.12-.37,33.49-15.31,32.92-34.25-.53-18-16.92-33.72-34.76-33.26s-33.64,17.1-33.05,35C822.88,397,838,411.08,857.16,410.7ZM188.2,490c-18.59.42-32,14.44-31.46,32.85.55,17.69,15.72,32.4,33,32s32.38-16.39,31.73-33.45A32.36,32.36,0,0,0,188.2,490ZM861,575.44c-17.69-.08-30.62,12.51-31.24,30.42-.59,16.84,13.6,31,30.92,30.86,16.46-.14,30.19-13.17,30.79-29.24C892.05,591.21,877.13,575.52,861,575.44ZM289.88,750.6c-1.63-12.15-9.27-21.22-25-21.54-14.13-.29-27.18,12.3-25.82,26.1,1.46,14.7,9.82,24.08,25.48,24.49C279.31,780,290.4,768.29,289.88,750.6Zm97.41-144.86c-14.71,2.08-24.13,9.63-23.55,25.64s10,24,25.38,23.57c15.57-.41,24.32-9.72,23.91-25.14C412.61,614.22,402.94,606.54,387.29,605.74ZM757.57,498.13h-8.5c-5.67,8.1-14.9,15.69-16.16,24.42-1.81,12.63,8.79,20.77,21.12,20.58,12.76-.2,21.63-9.58,19.32-22C771.79,512.8,763.08,505.76,757.57,498.13Zm-97.4-159.87c.21-3.2.42-6.41.64-9.61-7.24-5.48-14.42-15.1-21.73-15.2-6.52-.08-16.79,9.24-19,16.37-3.35,11,3.78,21.68,16.39,20.63C644.67,349.76,652.3,342.55,660.17,338.26Z" transform="translate(-17.17 -16.1)"/></svg>